<?xml version="1.0" encoding="UTF-8"?>
<svg id="Layer_1" data-name="Layer 1" xmlns="http://www.w3.org/2000/svg" viewBox="20 40 115 70">
  <defs>
    <style>
      .cls-1, .cls-2 {
        fill-rule: evenodd;
      }

      .cls-1, .cls-3 {
        fill: #3b82f6;
      }

      .cls-4, .cls-2 {
        fill: #fff;
      }

      .cls-5 {
        isolation: isolate;
      }
    </style>
  </defs>
  <path class="cls-1" d="M54.42,59.29h5.28l7.62-8.56,3.99,4.22,5.37-8.82,5.18-1.23,5.31-6.5,7.53,13.75,5.37,5.33,17.3,16.98-17.87-15.27-4.55-4.9,1.6,6.17,5.56,5.3-6.48-4.91-3.79-9.08-4.7-9.25-2.73,4.74-5.8.9-8.26,13.86-.58,4.48-5.37,5.5,4.8-5.83.12-4.48,1.61-3.38-3.09-4.06-7.11,7.67-3.74,3.11-3.64,6.43,2.3-6.91,2.97-2.98-3.93-.36-12.08,13.27,11.8-15.17Z"/>
  <path class="cls-2" d="M85.85,48.93l-5.8.9-4.86,8.16,5.33-6.55,5.33-2.5Z"/>
  <g id="Tect" class="cls-5">
    <g class="cls-5">
      <path class="cls-3" d="M26.83,103.25v-23.97h6.59c1.73,0,3.02.48,3.9,1.44.87.96,1.31,2.36,1.31,4.2v11.22c0,2.27-.4,4.02-1.19,5.26-.79,1.24-2.19,1.85-4.17,1.85h-6.43ZM31.65,99.01h.83c.88,0,1.32-.43,1.32-1.28v-12.37c0-.8-.11-1.31-.32-1.55-.21-.23-.65-.35-1.3-.35h-.53v15.54Z"/>
      <path class="cls-3" d="M46.22,103.46c-1.45,0-2.61-.27-3.47-.82-.86-.54-1.48-1.33-1.85-2.36-.37-1.03-.56-2.26-.56-3.71v-8.21c0-1.9.54-3.33,1.63-4.31,1.09-.98,2.59-1.46,4.49-1.46,3.92,0,5.88,1.92,5.88,5.77v1.48c0,1.8-.02,3.01-.05,3.62h-7.08v3.95c0,.36.02.72.07,1.07s.15.64.31.86c.16.23.42.34.77.34.51,0,.83-.22.95-.66s.19-1.01.19-1.72v-1.96h4.85v1.16c0,1.53-.19,2.8-.56,3.83-.38,1.03-1.01,1.81-1.91,2.33-.89.52-2.11.78-3.66.78ZM45.18,91.06h2.32v-2.75c0-.74-.09-1.26-.27-1.59s-.45-.48-.82-.48c-.39,0-.69.15-.91.46s-.32.84-.32,1.61v2.75Z"/>
      <path class="cls-3" d="M56.72,103.25l-3.28-20.43h4.89l1.17,13.65,1.32-13.65h4.88l-3.34,20.43h-5.64Z"/>
    </g>
    <g class="cls-5">
      <path class="cls-4" d="M67.06,103.25v-23.97h6.33c1.33,0,2.38.3,3.15.89.78.59,1.33,1.43,1.67,2.52.34,1.09.5,2.39.5,3.89s-.14,2.72-.42,3.79-.78,1.91-1.5,2.5c-.72.59-1.75.89-3.07.89h-1.95v9.49h-4.71ZM71.77,89.45h.27c.89,0,1.43-.25,1.63-.75s.3-1.24.3-2.21c0-.91-.1-1.61-.29-2.1s-.66-.74-1.38-.74h-.53v5.8Z"/>
      <path class="cls-4" d="M85.87,103.46c-1.45,0-2.61-.27-3.47-.82-.86-.54-1.48-1.33-1.85-2.36-.37-1.03-.56-2.26-.56-3.71v-8.21c0-1.9.54-3.33,1.63-4.31,1.09-.98,2.59-1.46,4.49-1.46,3.92,0,5.88,1.92,5.88,5.77v1.48c0,1.8-.02,3.01-.05,3.62h-7.08v3.95c0,.36.02.72.07,1.07.04.35.15.64.31.86.16.23.41.34.77.34.51,0,.83-.22.95-.66s.19-1.01.19-1.72v-1.96h4.85v1.16c0,1.53-.19,2.8-.57,3.83-.38,1.03-1.01,1.81-1.91,2.33-.89.52-2.11.78-3.66.78ZM84.83,91.06h2.31v-2.75c0-.74-.09-1.26-.27-1.59s-.46-.48-.82-.48c-.39,0-.69.15-.91.46s-.32.84-.32,1.61v2.75Z"/>
      <path class="cls-4" d="M97.48,103.46c-1.13,0-2-.26-2.59-.79-.59-.53-1-1.25-1.22-2.17-.22-.92-.33-1.96-.33-3.12,0-1.24.12-2.26.37-3.06.25-.79.67-1.45,1.26-1.95.59-.51,1.41-.94,2.46-1.29l3.02-1.04v-2.1c0-1.1-.36-1.65-1.08-1.65-.65,0-.98.45-.98,1.33v1.23h-4.74c0-.07-.01-.17-.01-.28v-.39c0-2.03.48-3.48,1.44-4.32s2.48-1.27,4.56-1.27c1.09,0,2.07.19,2.93.58.86.39,1.55.96,2.05,1.71s.76,1.68.76,2.79v15.57h-4.85v-2.42c-.24.85-.63,1.51-1.17,1.96s-1.17.68-1.87.68ZM99.4,99.68c.4,0,.67-.17.82-.5.15-.34.22-.7.22-1.09v-5.69c-.67.27-1.19.62-1.57,1.03-.37.41-.56,1.02-.56,1.82v2.63c0,1.21.36,1.81,1.09,1.81Z"/>
      <path class="cls-4" d="M107.25,103.25v-23.97h4.82v10.58l2.34-7.04h5.05l-3.06,8.88,3.89,11.55h-5.19l-3.04-9.63v9.63h-4.82Z"/>
      <path class="cls-4" d="M126.53,103.46c-4.03,0-6.05-2.04-6.05-6.13v-1.62h4.9v2.4c0,.46.09.83.27,1.09.18.26.47.39.87.39.71,0,1.06-.53,1.06-1.59,0-.89-.19-1.55-.56-2s-.83-.87-1.36-1.27l-2.6-2c-.82-.64-1.44-1.31-1.87-2.02s-.64-1.69-.64-2.96c0-1.17.28-2.14.84-2.9s1.3-1.33,2.22-1.7c.92-.37,1.92-.56,2.99-.56,3.96,0,5.94,1.97,5.94,5.92v.38h-5.04v-.78c0-.41-.07-.8-.21-1.18-.14-.38-.42-.57-.82-.57-.69,0-1.04.36-1.04,1.09s.29,1.31.87,1.73l3.02,2.21c.94.68,1.74,1.49,2.38,2.42.64.94.96,2.18.96,3.73,0,1.92-.55,3.39-1.64,4.4s-2.59,1.51-4.5,1.51Z"/>
    </g>
  </g>
</svg>